# xmcd
# Copyright (C) 1995-1998 Ti Kan
#
# Track frame offsets:
#       150
#       18897
#       52957
#       82872
#
# Disc length: 1381 seconds
#
# Revision: 0
# Processed by: cddbd v1.4PL0 Copyright (c) Steve Scherf et al.
# Submitted via: CD-Transfer v1.0
#
DISCID=1d056304
DTITLE=Yasmine Tamara - Yasmine Tamara
DYEAR=03
DGENRE=
TTITLE0=Crazy (Radio Edit)
TTITLE1=Crazy (45 Dip Acid Lounge Mix)
TTITLE2=Crazy (Instrumental)
TTITLE3=Data Track
EXTD=
EXTT0=
EXTT1=
EXTT2=
EXTT3=
PLAYORDER=
